
      <svg xmlns="http://www.w3.org/2000/svg" width="32" height="32" viewBox="353 77 297 36">
        <path d="M394,77 L395,77 L396,77 L397,77 L398,77 L399,77 L400,77 L401,77 L402,77 L403,77 L404,77 L405,77 L406,77 L407,77 M469,77 L470,77 L471,77 L472,77 L473,77 L474,77 L475,77 L476,77 L477,77 L478,77 L479,77 L480,77 L481,77 M353,78 L354,78 L355,78 L356,78 L357,78 L358,78 L359,78 L360,78 L361,78 M374,78 L375,78 L376,78 L377,78 L378,78 L379,78 L380,78 L381,78 M392,78 L393,78 L394,78 L395,78 L396,78 L397,78 L398,78 L399,78 L400,78 L401,78 L402,78 L403,78 L404,78 L405,78 L406,78 L407,78 L408,78 L409,78 M420,78 L421,78 L422,78 L423,78 L424,78 L425,78 L426,78 L427,78 L428,78 M467,78 L468,78 L469,78 L470,78 L471,78 L472,78 L473,78 L474,78 L475,78 L476,78 L477,78 L478,78 L479,78 L480,78 L481,78 L482,78 L483,78 M522,78 L523,78 L524,78 L525,78 L526,78 L527,78 L528,78 L529,78 M594,78 L595,78 L596,78 M353,79 L354,79 L355,79 L356,79 L357,79 L358,79 L359,79 L360,79 L361,79 M374,79 L375,79 L376,79 L377,79 L378,79 L379,79 L380,79 L381,79 M391,79 L392,79 L393,79 L394,79 L395,79 L396,79 L397,79 L398,79 L399,79 L400,79 L401,79 L402,79 L403,79 L404,79 L405,79 L406,79 L407,79 L408,79 L409,79 L410,79 M420,79 L421,79 L422,79 L423,79 L424,79 L425,79 L426,79 L427,79 L428,79 M465,79 L466,79 L467,79 L468,79 L469,79 L470,79 L471,79 L472,79 L473,79 L474,79 L475,79 L476,79 L477,79 L478,79 L479,79 L480,79 L481,79 L482,79 L483,79 L484,79 L485,79 M522,79 L523,79 L524,79 L525,79 L526,79 L527,79 L528,79 L529,79 M592,79 L593,79 L594,79 L595,79 L596,79 M353,80 L354,80 L355,80 L356,80 L357,80 L358,80 L359,80 L360,80 L361,80 M374,80 L375,80 L376,80 L377,80 L378,80 L379,80 L380,80 L381,80 M390,80 L391,80 L392,80 L393,80 L394,80 L395,80 L396,80 L397,80 L398,80 L399,80 L400,80 L401,80 L402,80 L403,80 L404,80 L405,80 L406,80 L407,80 L408,80 L409,80 L410,80 L411,80 M420,80 L421,80 L422,80 L423,80 L424,80 L425,80 L426,80 L427,80 L428,80 M465,80 L466,80 L467,80 L468,80 L469,80 L470,80 L471,80 L472,80 L473,80 L474,80 L475,80 L476,80 L477,80 L478,80 L479,80 L480,80 L481,80 L482,80 L483,80 L484,80 L485,80 L486,80 M522,80 L523,80 L524,80 L525,80 L526,80 L527,80 L528,80 L529,80 M591,80 L592,80 L593,80 L594,80 L595,80 L596,80 M353,81 L354,81 L355,81 L356,81 L357,81 L358,81 L359,81 L360,81 L361,81 M374,81 L375,81 L376,81 L377,81 L378,81 L379,81 L380,81 L381,81 M389,81 L390,81 L391,81 L392,81 L393,81 L394,81 L395,81 L396,81 L397,81 L398,81 L399,81 L400,81 L401,81 L402,81 L403,81 L404,81 L405,81 L406,81 L407,81 L408,81 L409,81 L410,81 L411,81 L412,81 M420,81 L421,81 L422,81 L423,81 L424,81 L425,81 L426,81 L427,81 L428,81 M464,81 L465,81 L466,81 L467,81 L468,81 L469,81 L470,81 L471,81 L472,81 L473,81 L474,81 L475,81 L476,81 L477,81 L478,81 L479,81 L480,81 L481,81 L482,81 L483,81 L484,81 L485,81 L486,81 L487,81 M522,81 L523,81 L524,81 L525,81 L526,81 L527,81 L528,81 L529,81 M589,81 L590,81 L591,81 L592,81 L593,81 L594,81 L595,81 L596,81 M353,82 L354,82 L355,82 L356,82 L357,82 L358,82 L359,82 L360,82 L361,82 M374,82 L375,82 L376,82 L377,82 L378,82 L379,82 L380,82 L381,82 M389,82 L390,82 L391,82 L392,82 L393,82 L394,82 L395,82 L396,82 L397,82 L398,82 L399,82 L400,82 L401,82 L402,82 L403,82 L404,82 L405,82 L406,82 L407,82 L408,82 L409,82 L410,82 L411,82 L412,82 M420,82 L421,82 L422,82 L423,82 L424,82 L425,82 L426,82 L427,82 L428,82 M463,82 L464,82 L465,82 L466,82 L467,82 L468,82 L469,82 L470,82 L471,82 L472,82 L473,82 L474,82 L475,82 L476,82 L477,82 L478,82 L479,82 L480,82 L481,82 L482,82 L483,82 L484,82 L485,82 L486,82 L487,82 M522,82 L523,82 L524,82 L525,82 L526,82 L527,82 L528,82 L529,82 M589,82 L590,82 L591,82 L592,82 L593,82 L594,82 L595,82 L596,82 M353,83 L354,83 L355,83 L356,83 L357,83 L358,83 L359,83 L360,83 L361,83 M374,83 L375,83 L376,83 L377,83 L378,83 L379,83 L380,83 L381,83 M388,83 L389,83 L390,83 L391,83 L392,83 L393,83 L394,83 L395,83 L396,83 L397,83 L398,83 L399,83 M402,83 L403,83 L404,83 L405,83 L406,83 L407,83 L408,83 L409,83 L410,83 L411,83 L412,83 L413,83 M420,83 L421,83 L422,83 L423,83 L424,83 L425,83 L426,83 L427,83 L428,83 M463,83 L464,83 L465,83 L466,83 L467,83 L468,83 L469,83 L470,83 L471,83 L472,83 L473,83 L474,83 M476,83 L477,83 L478,83 L479,83 L480,83 L481,83 L482,83 L483,83 L484,83 L485,83 L486,83 L487,83 L488,83 M522,83 L523,83 L524,83 L525,83 L526,83 L527,83 L528,83 L529,83 M589,83 L590,83 L591,83 L592,83 L593,83 L594,83 L595,83 L596,83 M353,84 L354,84 L355,84 L356,84 L357,84 L358,84 L359,84 L360,84 L361,84 M374,84 L375,84 L376,84 L377,84 L378,84 L379,84 L380,84 L381,84 M388,84 L389,84 L390,84 L391,84 L392,84 L393,84 L394,84 L395,84 L396,84 M404,84 L405,84 L406,84 L407,84 L408,84 L409,84 L410,84 L411,84 L412,84 L413,84 M420,84 L421,84 L422,84 L423,84 L424,84 L425,84 L426,84 L427,84 L428,84 M463,84 L464,84 L465,84 L466,84 L467,84 L468,84 L469,84 L470,84 L471,84 M479,84 L480,84 L481,84 L482,84 L483,84 L484,84 L485,84 L486,84 L487,84 L488,84 M522,84 L523,84 L524,84 L525,84 L526,84 L527,84 L528,84 L529,84 M589,84 L590,84 L591,84 L592,84 L593,84 L594,84 L595,84 L596,84 M353,85 L354,85 L355,85 L356,85 L357,85 L358,85 L359,85 L360,85 L361,85 M374,85 L375,85 L376,85 L377,85 L378,85 L379,85 L380,85 L381,85 M388,85 L389,85 L390,85 L391,85 L392,85 L393,85 L394,85 L395,85 M405,85 L406,85 L407,85 L408,85 L409,85 L410,85 L411,85 L412,85 L413,85 M420,85 L421,85 L422,85 L423,85 L424,85 L425,85 L426,85 L427,85 L428,85 M462,85 L463,85 L464,85 L465,85 L466,85 L467,85 L468,85 L469,85 L470,85 M480,85 L481,85 L482,85 L483,85 L484,85 L485,85 L486,85 L487,85 L488,85 M522,85 L523,85 L524,85 L525,85 L526,85 L527,85 L528,85 L529,85 M589,85 L590,85 L591,85 L592,85 L593,85 L594,85 L595,85 L596,85 M353,86 L354,86 L355,86 L356,86 L357,86 L358,86 L359,86 L360,86 L361,86 M374,86 L375,86 L376,86 L377,86 L378,86 L379,86 L380,86 L381,86 M388,86 L389,86 L390,86 L391,86 L392,86 L393,86 L394,86 L395,86 M406,86 L407,86 L408,86 L409,86 L410,86 L411,86 L412,86 L413,86 L414,86 M420,86 L421,86 L422,86 L423,86 L424,86 L425,86 L426,86 L427,86 L428,86 M462,86 L463,86 L464,86 L465,86 L466,86 L467,86 L468,86 L469,86 M480,86 L481,86 L482,86 L483,86 L484,86 L485,86 L486,86 L487,86 L488,86 M500,86 L501,86 L502,86 L503,86 L504,86 L505,86 L506,86 L507,86 L508,86 L509,86 L510,86 M522,86 L523,86 L524,86 L525,86 L526,86 L527,86 L528,86 L529,86 M540,86 L541,86 L542,86 L543,86 L544,86 L545,86 L546,86 L547,86 L548,86 L549,86 L550,86 M567,86 L568,86 L569,86 L570,86 L571,86 L572,86 L573,86 L574,86 L575,86 L576,86 L577,86 L578,86 M589,86 L590,86 L591,86 L592,86 L593,86 L594,86 L595,86 L596,86 M611,86 L612,86 L613,86 L614,86 L615,86 L616,86 L617,86 L618,86 L619,86 L620,86 L621,86 M642,86 L643,86 L644,86 L645,86 L646,86 L647,86 L648,86 L649,86 M353,87 L354,87 L355,87 L356,87 L357,87 L358,87 L359,87 L360,87 L361,87 M374,87 L375,87 L376,87 L377,87 L378,87 L379,87 L380,87 L381,87 M388,87 L389,87 L390,87 L391,87 L392,87 L393,87 L394,87 L395,87 M406,87 L407,87 L408,87 L409,87 L410,87 L411,87 L412,87 L413,87 L414,87 M420,87 L421,87 L422,87 L423,87 L424,87 L425,87 L426,87 L427,87 L428,87 M462,87 L463,87 L464,87 L465,87 L466,87 L467,87 L468,87 L469,87 L470,87 M481,87 L482,87 L483,87 L484,87 L485,87 L486,87 L487,87 L488,87 M498,87 L499,87 L500,87 L501,87 L502,87 L503,87 L504,87 L505,87 L506,87 L507,87 L508,87 L509,87 L510,87 L511,87 M522,87 L523,87 L524,87 L525,87 L526,87 L527,87 L528,87 L529,87 M538,87 L539,87 L540,87 L541,87 L542,87 L543,87 L544,87 L545,87 L546,87 L547,87 L548,87 L549,87 L550,87 L551,87 M565,87 L566,87 L567,87 L568,87 L569,87 L570,87 L571,87 L572,87 L573,87 L574,87 L575,87 L576,87 L577,87 L578,87 L579,87 L580,87 M586,87 L587,87 L588,87 L589,87 L590,87 L591,87 L592,87 L593,87 L594,87 L595,87 L596,87 L597,87 L598,87 L599,87 L600,87 M609,87 L610,87 L611,87 L612,87 L613,87 L614,87 L615,87 L616,87 L617,87 L618,87 L619,87 L620,87 L621,87 L622,87 L623,87 M633,87 L634,87 L635,87 L636,87 L637,87 L638,87 L639,87 L640,87 L641,87 L642,87 L643,87 L644,87 L645,87 L646,87 L647,87 L648,87 L649,87 L650,87 M353,88 L354,88 L355,88 L356,88 L357,88 L358,88 L359,88 L360,88 L361,88 M374,88 L375,88 L376,88 L377,88 L378,88 L379,88 L380,88 L381,88 M388,88 L389,88 L390,88 L391,88 L392,88 L393,88 L394,88 L395,88 L396,88 M420,88 L421,88 L422,88 L423,88 L424,88 L425,88 L426,88 L427,88 L428,88 M462,88 L463,88 L464,88 L465,88 L466,88 L467,88 L468,88 L469,88 L470,88 L471,88 M497,88 L498,88 L499,88 L500,88 L501,88 L502,88 L503,88 L504,88 L505,88 L506,88 L507,88 L508,88 L509,88 L510,88 L511,88 L512,88 L513,88 M522,88 L523,88 L524,88 L525,88 L526,88 L527,88 L528,88 L529,88 M537,88 L538,88 L539,88 L540,88 L541,88 L542,88 L543,88 L544,88 L545,88 L546,88 L547,88 L548,88 L549,88 L550,88 L551,88 L552,88 L553,88 M564,88 L565,88 L566,88 L567,88 L568,88 L569,88 L570,88 L571,88 L572,88 L573,88 L574,88 L575,88 L576,88 L577,88 L578,88 L579,88 L580,88 L581,88 M586,88 L587,88 L588,88 L589,88 L590,88 L591,88 L592,88 L593,88 L594,88 L595,88 L596,88 L597,88 L598,88 L599,88 L600,88 M607,88 L608,88 L609,88 L610,88 L611,88 L612,88 L613,88 L614,88 L615,88 L616,88 L617,88 L618,88 L619,88 L620,88 L621,88 L622,88 L623,88 L624,88 M633,88 L634,88 L635,88 L636,88 L637,88 L638,88 L639,88 L640,88 L641,88 L642,88 L643,88 L644,88 L645,88 L646,88 L647,88 L648,88 L649,88 L650,88 M353,89 L354,89 L355,89 L356,89 L357,89 L358,89 L359,89 L360,89 L361,89 M374,89 L375,89 L376,89 L377,89 L378,89 L379,89 L380,89 L381,89 M388,89 L389,89 L390,89 L391,89 L392,89 L393,89 L394,89 L395,89 L396,89 L397,89 L398,89 M420,89 L421,89 L422,89 L423,89 L424,89 L425,89 L426,89 L427,89 L428,89 M462,89 L463,89 L464,89 L465,89 L466,89 L467,89 L468,89 L469,89 L470,89 L471,89 L472,89 L473,89 M496,89 L497,89 L498,89 L499,89 L500,89 L501,89 L502,89 L503,89 L504,89 L505,89 L506,89 L507,89 L508,89 L509,89 L510,89 L511,89 L512,89 L513,89 L514,89 M522,89 L523,89 L524,89 L525,89 L526,89 L527,89 L528,89 L529,89 M536,89 L537,89 L538,89 L539,89 L540,89 L541,89 L542,89 L543,89 L544,89 L545,89 L546,89 L547,89 L548,89 L549,89 L550,89 L551,89 L552,89 L553,89 L554,89 M563,89 L564,89 L565,89 L566,89 L567,89 L568,89 L569,89 L570,89 L571,89 L572,89 L573,89 L574,89 L575,89 L576,89 L577,89 L578,89 L579,89 L580,89 L581,89 L582,89 M586,89 L587,89 L588,89 L589,89 L590,89 L591,89 L592,89 L593,89 L594,89 L595,89 L596,89 L597,89 L598,89 L599,89 L600,89 M606,89 L607,89 L608,89 L609,89 L610,89 L611,89 L612,89 L613,89 L614,89 L615,89 L616,89 L617,89 L618,89 L619,89 L620,89 L621,89 L622,89 L623,89 L624,89 L625,89 M633,89 L634,89 L635,89 L636,89 L637,89 L638,89 L639,89 L640,89 L641,89 L642,89 L643,89 L644,89 L645,89 L646,89 L647,89 L648,89 L649,89 M353,90 L354,90 L355,90 L356,90 L357,90 L358,90 L359,90 L360,90 L361,90 M374,90 L375,90 L376,90 L377,90 L378,90 L379,90 L380,90 L381,90 M388,90 L389,90 L390,90 L391,90 L392,90 L393,90 L394,90 L395,90 L396,90 L397,90 L398,90 L399,90 L400,90 L401,90 M420,90 L421,90 L422,90 L423,90 L424,90 L425,90 L426,90 L427,90 L428,90 M463,90 L464,90 L465,90 L466,90 L467,90 L468,90 L469,90 L470,90 L471,90 L472,90 L473,90 L474,90 L475,90 L476,90 M495,90 L496,90 L497,90 L498,90 L499,90 L500,90 L501,90 L502,90 L503,90 L504,90 L505,90 L506,90 L507,90 L508,90 L509,90 L510,90 L511,90 L512,90 L513,90 L514,90 M522,90 L523,90 L524,90 L525,90 L526,90 L527,90 L528,90 L529,90 M535,90 L536,90 L537,90 L538,90 L539,90 L540,90 L541,90 L542,90 L543,90 L544,90 L545,90 L546,90 L547,90 L548,90 L549,90 L550,90 L551,90 L552,90 L553,90 L554,90 M562,90 L563,90 L564,90 L565,90 L566,90 L567,90 L568,90 L569,90 L570,90 L571,90 L572,90 L573,90 L574,90 L575,90 L576,90 L577,90 L578,90 L579,90 L580,90 L581,90 L582,90 M586,90 L587,90 L588,90 L589,90 L590,90 L591,90 L592,90 L593,90 L594,90 L595,90 L596,90 L597,90 L598,90 L599,90 L600,90 M605,90 L606,90 L607,90 L608,90 L609,90 L610,90 L611,90 L612,90 L613,90 L614,90 L615,90 L616,90 L617,90 L618,90 L619,90 L620,90 L621,90 L622,90 L623,90 L624,90 L625,90 L626,90 M633,90 L634,90 L635,90 L636,90 L637,90 L638,90 L639,90 L640,90 L641,90 L642,90 L643,90 L644,90 L645,90 L646,90 L647,90 L648,90 L649,90 M353,91 L354,91 L355,91 L356,91 L357,91 L358,91 L359,91 L360,91 L361,91 M374,91 L375,91 L376,91 L377,91 L378,91 L379,91 L380,91 L381,91 M388,91 L389,91 L390,91 L391,91 L392,91 L393,91 L394,91 L395,91 L396,91 L397,91 L398,91 L399,91 L400,91 L401,91 L402,91 L403,91 L404,91 L405,91 M420,91 L421,91 L422,91 L423,91 L424,91 L425,91 L426,91 L427,91 L428,91 M463,91 L464,91 L465,91 L466,91 L467,91 L468,91 L469,91 L470,91 L471,91 L472,91 L473,91 L474,91 L475,91 L476,91 L477,91 L478,91 L479,91 M494,91 L495,91 L496,91 L497,91 L498,91 L499,91 L500,91 L501,91 L502,91 L503,91 L504,91 L505,91 L506,91 L507,91 L508,91 L509,91 L510,91 L511,91 L512,91 L513,91 L514,91 L515,91 M522,91 L523,91 L524,91 L525,91 L526,91 L527,91 L528,91 L529,91 M534,91 L535,91 L536,91 L537,91 L538,91 L539,91 L540,91 L541,91 L542,91 L543,91 L544,91 L545,91 L546,91 L547,91 L548,91 L549,91 L550,91 L551,91 L552,91 L553,91 L554,91 L555,91 M562,91 L563,91 L564,91 L565,91 L566,91 L567,91 L568,91 L569,91 L570,91 L571,91 M573,91 L574,91 L575,91 L576,91 L577,91 L578,91 L579,91 L580,91 L581,91 L582,91 L583,91 M586,91 L587,91 L588,91 L589,91 L590,91 L591,91 L592,91 L593,91 L594,91 L595,91 L596,91 L597,91 L598,91 L599,91 L600,91 M605,91 L606,91 L607,91 L608,91 L609,91 L610,91 L611,91 L612,91 L613,91 L614,91 L615,91 M617,91 L618,91 L619,91 L620,91 L621,91 L622,91 L623,91 L624,91 L625,91 L626,91 L627,91 M633,91 L634,91 L635,91 L636,91 L637,91 L638,91 L639,91 L640,91 L641,91 L642,91 L643,91 L644,91 L645,91 L646,91 L647,91 L648,91 L649,91 M353,92 L354,92 L355,92 L356,92 L357,92 L358,92 L359,92 L360,92 L361,92 L362,92 L363,92 L364,92 L365,92 L366,92 L367,92 L368,92 L369,92 L370,92 L371,92 L372,92 L373,92 L374,92 L375,92 L376,92 L377,92 L378,92 L379,92 L380,92 L381,92 M389,92 L390,92 L391,92 L392,92 L393,92 L394,92 L395,92 L396,92 L397,92 L398,92 L399,92 L400,92 L401,92 L402,92 L403,92 L404,92 L405,92 L406,92 L407,92 L408,92 M420,92 L421,92 L422,92 L423,92 L424,92 L425,92 L426,92 L427,92 L428,92 M463,92 L464,92 L465,92 L466,92 L467,92 L468,92 L469,92 L470,92 L471,92 L472,92 L473,92 L474,92 L475,92 L476,92 L477,92 L478,92 L479,92 L480,92 L481,92 L482,92 M494,92 L495,92 L496,92 L497,92 L498,92 L499,92 L500,92 L501,92 L502,92 M507,92 L508,92 L509,92 L510,92 L511,92 L512,92 L513,92 L514,92 L515,92 M522,92 L523,92 L524,92 L525,92 L526,92 L527,92 L528,92 L529,92 M534,92 L535,92 L536,92 L537,92 L538,92 L539,92 L540,92 L541,92 L542,92 M547,92 L548,92 L549,92 L550,92 L551,92 L552,92 L553,92 L554,92 L555,92 M561,92 L562,92 L563,92 L564,92 L565,92 L566,92 L567,92 L568,92 L569,92 M575,92 L576,92 L577,92 L578,92 L579,92 L580,92 L581,92 L582,92 L583,92 M589,92 L590,92 L591,92 L592,92 L593,92 L594,92 L595,92 L596,92 M604,92 L605,92 L606,92 L607,92 L608,92 L609,92 L610,92 L611,92 L612,92 L613,92 M619,92 L620,92 L621,92 L622,92 L623,92 L624,92 L625,92 L626,92 L627,92 M633,92 L634,92 L635,92 L636,92 L637,92 L638,92 L639,92 L640,92 L641,92 L642,92 L643,92 L644,92 L645,92 L646,92 L647,92 L648,92 M353,93 L354,93 L355,93 L356,93 L357,93 L358,93 L359,93 L360,93 L361,93 L362,93 L363,93 L364,93 L365,93 L366,93 L367,93 L368,93 L369,93 L370,93 L371,93 L372,93 L373,93 L374,93 L375,93 L376,93 L377,93 L378,93 L379,93 L380,93 L381,93 M389,93 L390,93 L391,93 L392,93 L393,93 L394,93 L395,93 L396,93 L397,93 L398,93 L399,93 L400,93 L401,93 L402,93 L403,93 L404,93 L405,93 L406,93 L407,93 L408,93 L409,93 L410,93 M420,93 L421,93 L422,93 L423,93 L424,93 L425,93 L426,93 L427,93 L428,93 M464,93 L465,93 L466,93 L467,93 L468,93 L469,93 L470,93 L471,93 L472,93 L473,93 L474,93 L475,93 L476,93 L477,93 L478,93 L479,93 L480,93 L481,93 L482,93 L483,93 L484,93 M494,93 L495,93 L496,93 L497,93 L498,93 L499,93 L500,93 L501,93 M508,93 L509,93 L510,93 L511,93 L512,93 L513,93 L514,93 L515,93 L516,93 M522,93 L523,93 L524,93 L525,93 L526,93 L527,93 L528,93 L529,93 M534,93 L535,93 L536,93 L537,93 L538,93 L539,93 L540,93 L541,93 M548,93 L549,93 L550,93 L551,93 L552,93 L553,93 L554,93 L555,93 L556,93 M561,93 L562,93 L563,93 L564,93 L565,93 L566,93 L567,93 L568,93 L569,93 M576,93 L577,93 L578,93 L579,93 L580,93 L581,93 L582,93 L583,93 M589,93 L590,93 L591,93 L592,93 L593,93 L594,93 L595,93 L596,93 M604,93 L605,93 L606,93 L607,93 L608,93 L609,93 L610,93 L611,93 L612,93 M620,93 L621,93 L622,93 L623,93 L624,93 L625,93 L626,93 L627,93 L628,93 M633,93 L634,93 L635,93 L636,93 L637,93 L638,93 L639,93 L640,93 L641,93 L642,93 L643,93 L644,93 M646,93 L647,93 L648,93 M353,94 L354,94 L355,94 L356,94 L357,94 L358,94 L359,94 L360,94 L361,94 L362,94 L363,94 L364,94 L365,94 L366,94 L367,94 L368,94 L369,94 L370,94 L371,94 L372,94 L373,94 L374,94 L375,94 L376,94 L377,94 L378,94 L379,94 L380,94 L381,94 M390,94 L391,94 L392,94 L393,94 L394,94 L395,94 L396,94 L397,94 L398,94 L399,94 L400,94 L401,94 L402,94 L403,94 L404,94 L405,94 L406,94 L407,94 L408,94 L409,94 L410,94 L411,94 M420,94 L421,94 L422,94 L423,94 L424,94 L425,94 L426,94 L427,94 L428,94 M465,94 L466,94 L467,94 L468,94 L469,94 L470,94 L471,94 L472,94 L473,94 L474,94 L475,94 L476,94 L477,94 L478,94 L479,94 L480,94 L481,94 L482,94 L483,94 L484,94 L485,94 L486,94 M493,94 L494,94 L495,94 L496,94 L497,94 L498,94 L499,94 L500,94 L501,94 M509,94 L510,94 L511,94 L512,94 L513,94 L514,94 L515,94 L516,94 M522,94 L523,94 L524,94 L525,94 L526,94 L527,94 L528,94 L529,94 M533,94 L534,94 L535,94 L536,94 L537,94 L538,94 L539,94 L540,94 L541,94 M549,94 L550,94 L551,94 L552,94 L553,94 L554,94 L555,94 L556,94 M561,94 L562,94 L563,94 L564,94 L565,94 L566,94 L567,94 L568,94 M576,94 L577,94 L578,94 L579,94 L580,94 L581,94 L582,94 L583,94 M589,94 L590,94 L591,94 L592,94 L593,94 L594,94 L595,94 L596,94 M603,94 L604,94 L605,94 L606,94 L607,94 L608,94 L609,94 L610,94 L611,94 M620,94 L621,94 L622,94 L623,94 L624,94 L625,94 L626,94 L627,94 L628,94 M633,94 L634,94 L635,94 L636,94 L637,94 L638,94 L639,94 L640,94 L641,94 L642,94 M353,95 L354,95 L355,95 L356,95 L357,95 L358,95 L359,95 L360,95 L361,95 L362,95 L363,95 L364,95 L365,95 L366,95 L367,95 L368,95 L369,95 L370,95 L371,95 L372,95 L373,95 L374,95 L375,95 L376,95 L377,95 L378,95 L379,95 L380,95 L381,95 M391,95 L392,95 L393,95 L394,95 L395,95 L396,95 L397,95 L398,95 L399,95 L400,95 L401,95 L402,95 L403,95 L404,95 L405,95 L406,95 L407,95 L408,95 L409,95 L410,95 L411,95 L412,95 M420,95 L421,95 L422,95 L423,95 L424,95 L425,95 L426,95 L427,95 L428,95 M466,95 L467,95 L468,95 L469,95 L470,95 L471,95 L472,95 L473,95 L474,95 L475,95 L476,95 L477,95 L478,95 L479,95 L480,95 L481,95 L482,95 L483,95 L484,95 L485,95 L486,95 L487,95 M493,95 L494,95 L495,95 L496,95 L497,95 L498,95 L499,95 L500,95 M509,95 L510,95 L511,95 L512,95 L513,95 L514,95 L515,95 L516,95 M522,95 L523,95 L524,95 L525,95 L526,95 L527,95 L528,95 L529,95 M533,95 L534,95 L535,95 L536,95 L537,95 L538,95 L539,95 L540,95 M549,95 L550,95 L551,95 L552,95 L553,95 L554,95 L555,95 L556,95 M560,95 L561,95 L562,95 L563,95 L564,95 L565,95 L566,95 L567,95 L568,95 M589,95 L590,95 L591,95 L592,95 L593,95 L594,95 L595,95 L596,95 M603,95 L604,95 L605,95 L606,95 L607,95 L608,95 L609,95 L610,95 L611,95 M621,95 L622,95 L623,95 L624,95 L625,95 L626,95 L627,95 L628,95 M633,95 L634,95 L635,95 L636,95 L637,95 L638,95 L639,95 L640,95 L641,95 M353,96 L354,96 L355,96 L356,96 L357,96 L358,96 L359,96 L360,96 L361,96 L362,96 L363,96 L364,96 L365,96 L366,96 L367,96 L368,96 L369,96 L370,96 L371,96 L372,96 L373,96 L374,96 L375,96 L376,96 L377,96 L378,96 L379,96 L380,96 L381,96 M393,96 L394,96 L395,96 L396,96 L397,96 L398,96 L399,96 L400,96 L401,96 L402,96 L403,96 L404,96 L405,96 L406,96 L407,96 L408,96 L409,96 L410,96 L411,96 L412,96 L413,96 M420,96 L421,96 L422,96 L423,96 L424,96 L425,96 L426,96 L427,96 L428,96 M467,96 L468,96 L469,96 L470,96 L471,96 L472,96 L473,96 L474,96 L475,96 L476,96 L477,96 L478,96 L479,96 L480,96 L481,96 L482,96 L483,96 L484,96 L485,96 L486,96 L487,96 L488,96 M493,96 L494,96 L495,96 L496,96 L497,96 L498,96 L499,96 L500,96 M509,96 L510,96 L511,96 L512,96 L513,96 L514,96 L515,96 L516,96 M522,96 L523,96 L524,96 L525,96 L526,96 L527,96 L528,96 L529,96 M533,96 L534,96 L535,96 L536,96 L537,96 L538,96 L539,96 L540,96 M549,96 L550,96 L551,96 L552,96 L553,96 L554,96 L555,96 L556,96 M560,96 L561,96 L562,96 L563,96 L564,96 L565,96 L566,96 L567,96 M589,96 L590,96 L591,96 L592,96 L593,96 L594,96 L595,96 L596,96 M603,96 L604,96 L605,96 L606,96 L607,96 L608,96 L609,96 L610,96 M621,96 L622,96 L623,96 L624,96 L625,96 L626,96 L627,96 L628,96 L629,96 M633,96 L634,96 L635,96 L636,96 L637,96 L638,96 L639,96 L640,96 L641,96 M353,97 L354,97 L355,97 L356,97 L357,97 L358,97 L359,97 L360,97 L361,97 L362,97 L363,97 L364,97 L365,97 L366,97 L367,97 L368,97 L369,97 L370,97 L371,97 L372,97 L373,97 L374,97 L375,97 L376,97 L377,97 L378,97 L379,97 L380,97 L381,97 M395,97 L396,97 L397,97 L398,97 L399,97 L400,97 L401,97 L402,97 L403,97 L404,97 L405,97 L406,97 L407,97 L408,97 L409,97 L410,97 L411,97 L412,97 L413,97 L414,97 M420,97 L421,97 L422,97 L423,97 L424,97 L425,97 L426,97 L427,97 L428,97 M469,97 L470,97 L471,97 L472,97 L473,97 L474,97 L475,97 L476,97 L477,97 L478,97 L479,97 L480,97 L481,97 L482,97 L483,97 L484,97 L485,97 L486,97 L487,97 L488,97 M493,97 L494,97 L495,97 L496,97 L497,97 L498,97 L499,97 L500,97 L501,97 L502,97 L503,97 L504,97 L505,97 L506,97 L507,97 L508,97 L509,97 L510,97 L511,97 L512,97 L513,97 L514,97 L515,97 L516,97 M522,97 L523,97 L524,97 L525,97 L526,97 L527,97 L528,97 L529,97 M533,97 L534,97 L535,97 L536,97 L537,97 L538,97 L539,97 L540,97 L541,97 L542,97 L543,97 L544,97 L545,97 L546,97 L547,97 L548,97 L549,97 L550,97 L551,97 L552,97 L553,97 L554,97 L555,97 L556,97 M560,97 L561,97 L562,97 L563,97 L564,97 L565,97 L566,97 L567,97 M589,97 L590,97 L591,97 L592,97 L593,97 L594,97 L595,97 L596,97 M603,97 L604,97 L605,97 L606,97 L607,97 L608,97 L609,97 L610,97 M621,97 L622,97 L623,97 L624,97 L625,97 L626,97 L627,97 L628,97 L629,97 M633,97 L634,97 L635,97 L636,97 L637,97 L638,97 L639,97 L640,97 L641,97 M353,98 L354,98 L355,98 L356,98 L357,98 L358,98 L359,98 L360,98 L361,98 M374,98 L375,98 L376,98 L377,98 L378,98 L379,98 L380,98 L381,98 M398,98 L399,98 L400,98 L401,98 L402,98 L403,98 L404,98 L405,98 L406,98 L407,98 L408,98 L409,98 L410,98 L411,98 L412,98 L413,98 L414,98 M420,98 L421,98 L422,98 L423,98 L424,98 L425,98 L426,98 L427,98 L428,98 M472,98 L473,98 L474,98 L475,98 L476,98 L477,98 L478,98 L479,98 L480,98 L481,98 L482,98 L483,98 L484,98 L485,98 L486,98 L487,98 L488,98 L489,98 M493,98 L494,98 L495,98 L496,98 L497,98 L498,98 L499,98 L500,98 L501,98 L502,98 L503,98 L504,98 L505,98 L506,98 L507,98 L508,98 L509,98 L510,98 L511,98 L512,98 L513,98 L514,98 L515,98 L516,98 M522,98 L523,98 L524,98 L525,98 L526,98 L527,98 L528,98 L529,98 M533,98 L534,98 L535,98 L536,98 L537,98 L538,98 L539,98 L540,98 L541,98 L542,98 L543,98 L544,98 L545,98 L546,98 L547,98 L548,98 L549,98 L550,98 L551,98 L552,98 L553,98 L554,98 L555,98 L556,98 M560,98 L561,98 L562,98 L563,98 L564,98 L565,98 L566,98 L567,98 M589,98 L590,98 L591,98 L592,98 L593,98 L594,98 L595,98 L596,98 M603,98 L604,98 L605,98 L606,98 L607,98 L608,98 L609,98 L610,98 M622,98 L623,98 L624,98 L625,98 L626,98 L627,98 L628,98 L629,98 M633,98 L634,98 L635,98 L636,98 L637,98 L638,98 L639,98 L640,98 L641,98 M353,99 L354,99 L355,99 L356,99 L357,99 L358,99 L359,99 L360,99 L361,99 M374,99 L375,99 L376,99 L377,99 L378,99 L379,99 L380,99 L381,99 M401,99 L402,99 L403,99 L404,99 L405,99 L406,99 L407,99 L408,99 L409,99 L410,99 L411,99 L412,99 L413,99 L414,99 M420,99 L421,99 L422,99 L423,99 L424,99 L425,99 L426,99 L427,99 L428,99 M476,99 L477,99 L478,99 L479,99 L480,99 L481,99 L482,99 L483,99 L484,99 L485,99 L486,99 L487,99 L488,99 L489,99 M493,99 L494,99 L495,99 L496,99 L497,99 L498,99 L499,99 L500,99 L501,99 L502,99 L503,99 L504,99 L505,99 L506,99 L507,99 L508,99 L509,99 L510,99 L511,99 L512,99 L513,99 L514,99 L515,99 L516,99 M522,99 L523,99 L524,99 L525,99 L526,99 L527,99 L528,99 L529,99 M533,99 L534,99 L535,99 L536,99 L537,99 L538,99 L539,99 L540,99 L541,99 L542,99 L543,99 L544,99 L545,99 L546,99 L547,99 L548,99 L549,99 L550,99 L551,99 L552,99 L553,99 L554,99 L555,99 L556,99 M560,99 L561,99 L562,99 L563,99 L564,99 L565,99 L566,99 L567,99 M589,99 L590,99 L591,99 L592,99 L593,99 L594,99 L595,99 L596,99 M603,99 L604,99 L605,99 L606,99 L607,99 L608,99 L609,99 L610,99 M622,99 L623,99 L624,99 L625,99 L626,99 L627,99 L628,99 L629,99 M633,99 L634,99 L635,99 L636,99 L637,99 L638,99 L639,99 L640,99 M353,100 L354,100 L355,100 L356,100 L357,100 L358,100 L359,100 L360,100 L361,100 M374,100 L375,100 L376,100 L377,100 L378,100 L379,100 L380,100 L381,100 M404,100 L405,100 L406,100 L407,100 L408,100 L409,100 L410,100 L411,100 L412,100 L413,100 L414,100 L415,100 M420,100 L421,100 L422,100 L423,100 L424,100 L425,100 L426,100 L427,100 L428,100 M479,100 L480,100 L481,100 L482,100 L483,100 L484,100 L485,100 L486,100 L487,100 L488,100 L489,100 M493,100 L494,100 L495,100 L496,100 L497,100 L498,100 L499,100 L500,100 L501,100 L502,100 L503,100 L504,100 L505,100 L506,100 L507,100 L508,100 L509,100 L510,100 L511,100 L512,100 L513,100 L514,100 L515,100 L516,100 M522,100 L523,100 L524,100 L525,100 L526,100 L527,100 L528,100 L529,100 M533,100 L534,100 L535,100 L536,100 L537,100 L538,100 L539,100 L540,100 L541,100 L542,100 L543,100 L544,100 L545,100 L546,100 L547,100 L548,100 L549,100 L550,100 L551,100 L552,100 L553,100 L554,100 L555,100 L556,100 M560,100 L561,100 L562,100 L563,100 L564,100 L565,100 L566,100 L567,100 M589,100 L590,100 L591,100 L592,100 L593,100 L594,100 L595,100 L596,100 M603,100 L604,100 L605,100 L606,100 L607,100 L608,100 L609,100 L610,100 M622,100 L623,100 L624,100 L625,100 L626,100 L627,100 L628,100 L629,100 M633,100 L634,100 L635,100 L636,100 L637,100 L638,100 L639,100 L640,100 M353,101 L354,101 L355,101 L356,101 L357,101 L358,101 L359,101 L360,101 L361,101 M374,101 L375,101 L376,101 L377,101 L378,101 L379,101 L380,101 L381,101 M406,101 L407,101 L408,101 L409,101 L410,101 L411,101 L412,101 L413,101 L414,101 L415,101 M420,101 L421,101 L422,101 L423,101 L424,101 L425,101 L426,101 L427,101 L428,101 M481,101 L482,101 L483,101 L484,101 L485,101 L486,101 L487,101 L488,101 L489,101 M493,101 L494,101 L495,101 L496,101 L497,101 L498,101 L499,101 L500,101 M522,101 L523,101 L524,101 L525,101 L526,101 L527,101 L528,101 L529,101 M533,101 L534,101 L535,101 L536,101 L537,101 L538,101 L539,101 L540,101 M560,101 L561,101 L562,101 L563,101 L564,101 L565,101 L566,101 L567,101 M589,101 L590,101 L591,101 L592,101 L593,101 L594,101 L595,101 L596,101 M603,101 L604,101 L605,101 L606,101 L607,101 L608,101 L609,101 L610,101 M621,101 L622,101 L623,101 L624,101 L625,101 L626,101 L627,101 L628,101 L629,101 M633,101 L634,101 L635,101 L636,101 L637,101 L638,101 L639,101 L640,101 M353,102 L354,102 L355,102 L356,102 L357,102 L358,102 L359,102 L360,102 L361,102 M374,102 L375,102 L376,102 L377,102 L378,102 L379,102 L380,102 L381,102 M387,102 L388,102 L389,102 L390,102 L391,102 L392,102 L393,102 L394,102 M407,102 L408,102 L409,102 L410,102 L411,102 L412,102 L413,102 L414,102 L415,102 M420,102 L421,102 L422,102 L423,102 L424,102 L425,102 L426,102 L427,102 L428,102 M462,102 L463,102 L464,102 L465,102 L466,102 L467,102 L468,102 M482,102 L483,102 L484,102 L485,102 L486,102 L487,102 L488,102 L489,102 M493,102 L494,102 L495,102 L496,102 L497,102 L498,102 L499,102 L500,102 M522,102 L523,102 L524,102 L525,102 L526,102 L527,102 L528,102 L529,102 M533,102 L534,102 L535,102 L536,102 L537,102 L538,102 L539,102 L540,102 M560,102 L561,102 L562,102 L563,102 L564,102 L565,102 L566,102 L567,102 L568,102 M589,102 L590,102 L591,102 L592,102 L593,102 L594,102 L595,102 L596,102 M603,102 L604,102 L605,102 L606,102 L607,102 L608,102 L609,102 L610,102 M621,102 L622,102 L623,102 L624,102 L625,102 L626,102 L627,102 L628,102 L629,102 M633,102 L634,102 L635,102 L636,102 L637,102 L638,102 L639,102 L640,102 M353,103 L354,103 L355,103 L356,103 L357,103 L358,103 L359,103 L360,103 L361,103 M374,103 L375,103 L376,103 L377,103 L378,103 L379,103 L380,103 L381,103 M386,103 L387,103 L388,103 L389,103 L390,103 L391,103 L392,103 L393,103 L394,103 M407,103 L408,103 L409,103 L410,103 L411,103 L412,103 L413,103 L414,103 L415,103 M420,103 L421,103 L422,103 L423,103 L424,103 L425,103 L426,103 L427,103 L428,103 M461,103 L462,103 L463,103 L464,103 L465,103 L466,103 L467,103 L468,103 L469,103 M482,103 L483,103 L484,103 L485,103 L486,103 L487,103 L488,103 L489,103 M493,103 L494,103 L495,103 L496,103 L497,103 L498,103 L499,103 L500,103 M522,103 L523,103 L524,103 L525,103 L526,103 L527,103 L528,103 L529,103 M533,103 L534,103 L535,103 L536,103 L537,103 L538,103 L539,103 L540,103 M560,103 L561,103 L562,103 L563,103 L564,103 L565,103 L566,103 L567,103 L568,103 M577,103 L578,103 L579,103 L580,103 L581,103 L582,103 L583,103 M589,103 L590,103 L591,103 L592,103 L593,103 L594,103 L595,103 L596,103 M603,103 L604,103 L605,103 L606,103 L607,103 L608,103 L609,103 L610,103 L611,103 M621,103 L622,103 L623,103 L624,103 L625,103 L626,103 L627,103 L628,103 M633,103 L634,103 L635,103 L636,103 L637,103 L638,103 L639,103 L640,103 M353,104 L354,104 L355,104 L356,104 L357,104 L358,104 L359,104 L360,104 L361,104 M374,104 L375,104 L376,104 L377,104 L378,104 L379,104 L380,104 L381,104 M386,104 L387,104 L388,104 L389,104 L390,104 L391,104 L392,104 L393,104 L394,104 L395,104 M407,104 L408,104 L409,104 L410,104 L411,104 L412,104 L413,104 L414,104 L415,104 M420,104 L421,104 L422,104 L423,104 L424,104 L425,104 L426,104 L427,104 L428,104 M461,104 L462,104 L463,104 L464,104 L465,104 L466,104 L467,104 L468,104 L469,104 M482,104 L483,104 L484,104 L485,104 L486,104 L487,104 L488,104 L489,104 M493,104 L494,104 L495,104 L496,104 L497,104 L498,104 L499,104 L500,104 L501,104 M522,104 L523,104 L524,104 L525,104 L526,104 L527,104 L528,104 L529,104 M533,104 L534,104 L535,104 L536,104 L537,104 L538,104 L539,104 L540,104 L541,104 M561,104 L562,104 L563,104 L564,104 L565,104 L566,104 L567,104 L568,104 M576,104 L577,104 L578,104 L579,104 L580,104 L581,104 L582,104 L583,104 L584,104 M589,104 L590,104 L591,104 L592,104 L593,104 L594,104 L595,104 L596,104 M603,104 L604,104 L605,104 L606,104 L607,104 L608,104 L609,104 L610,104 L611,104 M620,104 L621,104 L622,104 L623,104 L624,104 L625,104 L626,104 L627,104 L628,104 M633,104 L634,104 L635,104 L636,104 L637,104 L638,104 L639,104 L640,104 M353,105 L354,105 L355,105 L356,105 L357,105 L358,105 L359,105 L360,105 L361,105 M374,105 L375,105 L376,105 L377,105 L378,105 L379,105 L380,105 L381,105 M387,105 L388,105 L389,105 L390,105 L391,105 L392,105 L393,105 L394,105 L395,105 M406,105 L407,105 L408,105 L409,105 L410,105 L411,105 L412,105 L413,105 L414,105 L415,105 M420,105 L421,105 L422,105 L423,105 L424,105 L425,105 L426,105 L427,105 L428,105 M461,105 L462,105 L463,105 L464,105 L465,105 L466,105 L467,105 L468,105 L469,105 L470,105 M481,105 L482,105 L483,105 L484,105 L485,105 L486,105 L487,105 L488,105 L489,105 M494,105 L495,105 L496,105 L497,105 L498,105 L499,105 L500,105 L501,105 M508,105 L509,105 L510,105 L511,105 L512,105 L513,105 L514,105 L515,105 M522,105 L523,105 L524,105 L525,105 L526,105 L527,105 L528,105 L529,105 M534,105 L535,105 L536,105 L537,105 L538,105 L539,105 L540,105 L541,105 M548,105 L549,105 L550,105 L551,105 L552,105 L553,105 L554,105 L555,105 M561,105 L562,105 L563,105 L564,105 L565,105 L566,105 L567,105 L568,105 L569,105 M576,105 L577,105 L578,105 L579,105 L580,105 L581,105 L582,105 L583,105 L584,105 M589,105 L590,105 L591,105 L592,105 L593,105 L594,105 L595,105 L596,105 M604,105 L605,105 L606,105 L607,105 L608,105 L609,105 L610,105 L611,105 L612,105 M620,105 L621,105 L622,105 L623,105 L624,105 L625,105 L626,105 L627,105 L628,105 M633,105 L634,105 L635,105 L636,105 L637,105 L638,105 L639,105 L640,105 M353,106 L354,106 L355,106 L356,106 L357,106 L358,106 L359,106 L360,106 L361,106 M374,106 L375,106 L376,106 L377,106 L378,106 L379,106 L380,106 L381,106 M387,106 L388,106 L389,106 L390,106 L391,106 L392,106 L393,106 L394,106 L395,106 L396,106 M405,106 L406,106 L407,106 L408,106 L409,106 L410,106 L411,106 L412,106 L413,106 L414,106 M420,106 L421,106 L422,106 L423,106 L424,106 L425,106 L426,106 L427,106 L428,106 M462,106 L463,106 L464,106 L465,106 L466,106 L467,106 L468,106 L469,106 L470,106 L471,106 M480,106 L481,106 L482,106 L483,106 L484,106 L485,106 L486,106 L487,106 L488,106 L489,106 M494,106 L495,106 L496,106 L497,106 L498,106 L499,106 L500,106 L501,106 L502,106 M508,106 L509,106 L510,106 L511,106 L512,106 L513,106 L514,106 L515,106 L516,106 M522,106 L523,106 L524,106 L525,106 L526,106 L527,106 L528,106 L529,106 M534,106 L535,106 L536,106 L537,106 L538,106 L539,106 L540,106 L541,106 L542,106 M548,106 L549,106 L550,106 L551,106 L552,106 L553,106 L554,106 L555,106 L556,106 M561,106 L562,106 L563,106 L564,106 L565,106 L566,106 L567,106 L568,106 L569,106 L570,106 M575,106 L576,106 L577,106 L578,106 L579,106 L580,106 L581,106 L582,106 L583,106 M589,106 L590,106 L591,106 L592,106 L593,106 L594,106 L595,106 L596,106 M604,106 L605,106 L606,106 L607,106 L608,106 L609,106 L610,106 L611,106 L612,106 L613,106 M619,106 L620,106 L621,106 L622,106 L623,106 L624,106 L625,106 L626,106 L627,106 M633,106 L634,106 L635,106 L636,106 L637,106 L638,106 L639,106 L640,106 M353,107 L354,107 L355,107 L356,107 L357,107 L358,107 L359,107 L360,107 L361,107 M374,107 L375,107 L376,107 L377,107 L378,107 L379,107 L380,107 L381,107 M387,107 L388,107 L389,107 L390,107 L391,107 L392,107 L393,107 L394,107 L395,107 L396,107 L397,107 L398,107 L399,107 M402,107 L403,107 L404,107 L405,107 L406,107 L407,107 L408,107 L409,107 L410,107 L411,107 L412,107 L413,107 L414,107 M420,107 L421,107 L422,107 L423,107 L424,107 L425,107 L426,107 L427,107 L428,107 L429,107 L430,107 L431,107 L432,107 L433,107 L434,107 L435,107 L436,107 L437,107 L438,107 L439,107 L440,107 L441,107 L442,107 L443,107 L444,107 L445,107 M462,107 L463,107 L464,107 L465,107 L466,107 L467,107 L468,107 L469,107 L470,107 L471,107 L472,107 L473,107 L474,107 M477,107 L478,107 L479,107 L480,107 L481,107 L482,107 L483,107 L484,107 L485,107 L486,107 L487,107 L488,107 L489,107 M494,107 L495,107 L496,107 L497,107 L498,107 L499,107 L500,107 L501,107 L502,107 L503,107 L504,107 M506,107 L507,107 L508,107 L509,107 L510,107 L511,107 L512,107 L513,107 L514,107 L515,107 M522,107 L523,107 L524,107 L525,107 L526,107 L527,107 L528,107 L529,107 M534,107 L535,107 L536,107 L537,107 L538,107 L539,107 L540,107 L541,107 L542,107 L543,107 L544,107 M546,107 L547,107 L548,107 L549,107 L550,107 L551,107 L552,107 L553,107 L554,107 L555,107 M562,107 L563,107 L564,107 L565,107 L566,107 L567,107 L568,107 L569,107 L570,107 L571,107 L572,107 L573,107 L574,107 L575,107 L576,107 L577,107 L578,107 L579,107 L580,107 L581,107 L582,107 L583,107 M589,107 L590,107 L591,107 L592,107 L593,107 L594,107 L595,107 L596,107 L597,107 L598,107 L599,107 L600,107 L601,107 M605,107 L606,107 L607,107 L608,107 L609,107 L610,107 L611,107 L612,107 L613,107 L614,107 L615,107 M617,107 L618,107 L619,107 L620,107 L621,107 L622,107 L623,107 L624,107 L625,107 L626,107 L627,107 M633,107 L634,107 L635,107 L636,107 L637,107 L638,107 L639,107 L640,107 M353,108 L354,108 L355,108 L356,108 L357,108 L358,108 L359,108 L360,108 L361,108 M374,108 L375,108 L376,108 L377,108 L378,108 L379,108 L380,108 L381,108 M388,108 L389,108 L390,108 L391,108 L392,108 L393,108 L394,108 L395,108 L396,108 L397,108 L398,108 L399,108 L400,108 L401,108 L402,108 L403,108 L404,108 L405,108 L406,108 L407,108 L408,108 L409,108 L410,108 L411,108 L412,108 L413,108 M420,108 L421,108 L422,108 L423,108 L424,108 L425,108 L426,108 L427,108 L428,108 L429,108 L430,108 L431,108 L432,108 L433,108 L434,108 L435,108 L436,108 L437,108 L438,108 L439,108 L440,108 L441,108 L442,108 L443,108 L444,108 L445,108 M463,108 L464,108 L465,108 L466,108 L467,108 L468,108 L469,108 L470,108 L471,108 L472,108 L473,108 L474,108 L475,108 L476,108 L477,108 L478,108 L479,108 L480,108 L481,108 L482,108 L483,108 L484,108 L485,108 L486,108 L487,108 L488,108 M495,108 L496,108 L497,108 L498,108 L499,108 L500,108 L501,108 L502,108 L503,108 L504,108 L505,108 L506,108 L507,108 L508,108 L509,108 L510,108 L511,108 L512,108 L513,108 L514,108 L515,108 M522,108 L523,108 L524,108 L525,108 L526,108 L527,108 L528,108 L529,108 M535,108 L536,108 L537,108 L538,108 L539,108 L540,108 L541,108 L542,108 L543,108 L544,108 L545,108 L546,108 L547,108 L548,108 L549,108 L550,108 L551,108 L552,108 L553,108 L554,108 L555,108 M562,108 L563,108 L564,108 L565,108 L566,108 L567,108 L568,108 L569,108 L570,108 L571,108 L572,108 L573,108 L574,108 L575,108 L576,108 L577,108 L578,108 L579,108 L580,108 L581,108 L582,108 M589,108 L590,108 L591,108 L592,108 L593,108 L594,108 L595,108 L596,108 L597,108 L598,108 L599,108 L600,108 L601,108 M605,108 L606,108 L607,108 L608,108 L609,108 L610,108 L611,108 L612,108 L613,108 L614,108 L615,108 L616,108 L617,108 L618,108 L619,108 L620,108 L621,108 L622,108 L623,108 L624,108 L625,108 L626,108 M633,108 L634,108 L635,108 L636,108 L637,108 L638,108 L639,108 L640,108 M353,109 L354,109 L355,109 L356,109 L357,109 L358,109 L359,109 L360,109 L361,109 M374,109 L375,109 L376,109 L377,109 L378,109 L379,109 L380,109 L381,109 M388,109 L389,109 L390,109 L391,109 L392,109 L393,109 L394,109 L395,109 L396,109 L397,109 L398,109 L399,109 L400,109 L401,109 L402,109 L403,109 L404,109 L405,109 L406,109 L407,109 L408,109 L409,109 L410,109 L411,109 L412,109 L413,109 M420,109 L421,109 L422,109 L423,109 L424,109 L425,109 L426,109 L427,109 L428,109 L429,109 L430,109 L431,109 L432,109 L433,109 L434,109 L435,109 L436,109 L437,109 L438,109 L439,109 L440,109 L441,109 L442,109 L443,109 L444,109 L445,109 M463,109 L464,109 L465,109 L466,109 L467,109 L468,109 L469,109 L470,109 L471,109 L472,109 L473,109 L474,109 L475,109 L476,109 L477,109 L478,109 L479,109 L480,109 L481,109 L482,109 L483,109 L484,109 L485,109 L486,109 L487,109 L488,109 M496,109 L497,109 L498,109 L499,109 L500,109 L501,109 L502,109 L503,109 L504,109 L505,109 L506,109 L507,109 L508,109 L509,109 L510,109 L511,109 L512,109 L513,109 L514,109 M522,109 L523,109 L524,109 L525,109 L526,109 L527,109 L528,109 L529,109 M536,109 L537,109 L538,109 L539,109 L540,109 L541,109 L542,109 L543,109 L544,109 L545,109 L546,109 L547,109 L548,109 L549,109 L550,109 L551,109 L552,109 L553,109 L554,109 M563,109 L564,109 L565,109 L566,109 L567,109 L568,109 L569,109 L570,109 L571,109 L572,109 L573,109 L574,109 L575,109 L576,109 L577,109 L578,109 L579,109 L580,109 L581,109 L582,109 M589,109 L590,109 L591,109 L592,109 L593,109 L594,109 L595,109 L596,109 L597,109 L598,109 L599,109 L600,109 L601,109 M606,109 L607,109 L608,109 L609,109 L610,109 L611,109 L612,109 L613,109 L614,109 L615,109 L616,109 L617,109 L618,109 L619,109 L620,109 L621,109 L622,109 L623,109 L624,109 L625,109 M633,109 L634,109 L635,109 L636,109 L637,109 L638,109 L639,109 L640,109 M353,110 L354,110 L355,110 L356,110 L357,110 L358,110 L359,110 L360,110 L361,110 M374,110 L375,110 L376,110 L377,110 L378,110 L379,110 L380,110 L381,110 M389,110 L390,110 L391,110 L392,110 L393,110 L394,110 L395,110 L396,110 L397,110 L398,110 L399,110 L400,110 L401,110 L402,110 L403,110 L404,110 L405,110 L406,110 L407,110 L408,110 L409,110 L410,110 L411,110 L412,110 M420,110 L421,110 L422,110 L423,110 L424,110 L425,110 L426,110 L427,110 L428,110 L429,110 L430,110 L431,110 L432,110 L433,110 L434,110 L435,110 L436,110 L437,110 L438,110 L439,110 L440,110 L441,110 L442,110 L443,110 L444,110 L445,110 M464,110 L465,110 L466,110 L467,110 L468,110 L469,110 L470,110 L471,110 L472,110 L473,110 L474,110 L475,110 L476,110 L477,110 L478,110 L479,110 L480,110 L481,110 L482,110 L483,110 L484,110 L485,110 L486,110 L487,110 M497,110 L498,110 L499,110 L500,110 L501,110 L502,110 L503,110 L504,110 L505,110 L506,110 L507,110 L508,110 L509,110 L510,110 L511,110 L512,110 L513,110 M522,110 L523,110 L524,110 L525,110 L526,110 L527,110 L528,110 L529,110 M537,110 L538,110 L539,110 L540,110 L541,110 L542,110 L543,110 L544,110 L545,110 L546,110 L547,110 L548,110 L549,110 L550,110 L551,110 L552,110 L553,110 M564,110 L565,110 L566,110 L567,110 L568,110 L569,110 L570,110 L571,110 L572,110 L573,110 L574,110 L575,110 L576,110 L577,110 L578,110 L579,110 L580,110 L581,110 M590,110 L591,110 L592,110 L593,110 L594,110 L595,110 L596,110 L597,110 L598,110 L599,110 L600,110 L601,110 M607,110 L608,110 L609,110 L610,110 L611,110 L612,110 L613,110 L614,110 L615,110 L616,110 L617,110 L618,110 L619,110 L620,110 L621,110 L622,110 L623,110 L624,110 M633,110 L634,110 L635,110 L636,110 L637,110 L638,110 L639,110 L640,110 M353,111 L354,111 L355,111 L356,111 L357,111 L358,111 L359,111 L360,111 L361,111 M374,111 L375,111 L376,111 L377,111 L378,111 L379,111 L380,111 L381,111 M390,111 L391,111 L392,111 L393,111 L394,111 L395,111 L396,111 L397,111 L398,111 L399,111 L400,111 L401,111 L402,111 L403,111 L404,111 L405,111 L406,111 L407,111 L408,111 L409,111 L410,111 L411,111 M420,111 L421,111 L422,111 L423,111 L424,111 L425,111 L426,111 L427,111 L428,111 L429,111 L430,111 L431,111 L432,111 L433,111 L434,111 L435,111 L436,111 L437,111 L438,111 L439,111 L440,111 L441,111 L442,111 L443,111 L444,111 L445,111 M465,111 L466,111 L467,111 L468,111 L469,111 L470,111 L471,111 L472,111 L473,111 L474,111 L475,111 L476,111 L477,111 L478,111 L479,111 L480,111 L481,111 L482,111 L483,111 L484,111 L485,111 L486,111 M498,111 L499,111 L500,111 L501,111 L502,111 L503,111 L504,111 L505,111 L506,111 L507,111 L508,111 L509,111 L510,111 L511,111 L512,111 M522,111 L523,111 L524,111 L525,111 L526,111 L527,111 L528,111 L529,111 M538,111 L539,111 L540,111 L541,111 L542,111 L543,111 L544,111 L545,111 L546,111 L547,111 L548,111 L549,111 L550,111 L551,111 L552,111 M565,111 L566,111 L567,111 L568,111 L569,111 L570,111 L571,111 L572,111 L573,111 L574,111 L575,111 L576,111 L577,111 L578,111 L579,111 L580,111 M590,111 L591,111 L592,111 L593,111 L594,111 L595,111 L596,111 L597,111 L598,111 L599,111 L600,111 L601,111 M609,111 L610,111 L611,111 L612,111 L613,111 L614,111 L615,111 L616,111 L617,111 L618,111 L619,111 L620,111 L621,111 L622,111 L623,111 M633,111 L634,111 L635,111 L636,111 L637,111 L638,111 L639,111 L640,111 M353,112 L354,112 L355,112 L356,112 L357,112 L358,112 L359,112 L360,112 L361,112 M374,112 L375,112 L376,112 L377,112 L378,112 L379,112 L380,112 L381,112 M392,112 L393,112 L394,112 L395,112 L396,112 L397,112 L398,112 L399,112 L400,112 L401,112 L402,112 L403,112 L404,112 L405,112 L406,112 L407,112 L408,112 L409,112 L410,112 M420,112 L421,112 L422,112 L423,112 L424,112 L425,112 L426,112 L427,112 L428,112 L429,112 L430,112 L431,112 L432,112 L433,112 L434,112 L435,112 L436,112 L437,112 L438,112 L439,112 L440,112 L441,112 L442,112 L443,112 L444,112 L445,112 M466,112 L467,112 L468,112 L469,112 L470,112 L471,112 L472,112 L473,112 L474,112 L475,112 L476,112 L477,112 L478,112 L479,112 L480,112 L481,112 L482,112 L483,112 L484,112 M500,112 L501,112 L502,112 L503,112 L504,112 L505,112 L506,112 L507,112 L508,112 L509,112 L510,112 M522,112 L523,112 L524,112 L525,112 L526,112 L527,112 L528,112 L529,112 M540,112 L541,112 L542,112 L543,112 L544,112 L545,112 L546,112 L547,112 L548,112 L549,112 L550,112 M567,112 L568,112 L569,112 L570,112 L571,112 L572,112 L573,112 L574,112 L575,112 L576,112 L577,112 L578,112 M591,112 L592,112 L593,112 L594,112 L595,112 L596,112 L597,112 L598,112 L599,112 L600,112 L601,112 M611,112 L612,112 L613,112 L614,112 L615,112 L616,112 L617,112 L618,112 L619,112 L620,112 L621,112 M633,112 L634,112 L635,112 L636,112 L637,112 L638,112 L639,112 L640,112 M394,113 L395,113 L396,113 L397,113 L398,113 L399,113 L400,113 L401,113 L402,113 L403,113 L404,113 L405,113 L406,113 L407,113 M469,113 L470,113 L471,113 L472,113 L473,113 L474,113 L475,113 L476,113 L477,113 L478,113 L479,113 L480,113 L481,113 L482,113" fill="none" stroke="black" stroke-width="1" />
      </svg>
    