<svg xmlns="http://www.w3.org/2000/svg" xmlns:xlink="http://www.w3.org/1999/xlink" width="1200" height="1200" viewBox="0 0 512 512" fill="none" class="h-full w-full" id="iconWithBackground"><rect id="r4" width="512" height="512" x="0" y="0" rx="80" fill="url(#linearGradient-iconWithBackground)" stroke="#000000" stroke-width="0" stroke-opacity="100%" paint-order="stroke"/><defs><linearGradient id="linearGradient-iconWithBackground" gradientUnits="userSpaceOnUse" gradientTransform="rotate(0)" style="transform-origin:center center"><stop stop-color="#46be80"/><stop offset="1" stop-color="#46be80"/></linearGradient><radialGradient id="glare" cx="0" cy="0" r="1" gradientUnits="userSpaceOnUse" gradientTransform="translate(256) rotate(90) scale(512)"><stop stop-color="white"/><stop offset="1" stop-color="white" stop-opacity="0"/></radialGradient><clipPath id="clip"><use xlink:href="#r4"/></clipPath></defs><svg xmlns="http://www.w3.org/2000/svg" width="340" height="340" viewBox="0 0 14 14" x="86" y="86"><g fill="none" stroke="#ffffff" stroke-linecap="round" stroke-linejoin="round"><path d="M5.71 4.31C3.79 3 2 4 .5 5.54l3.32 2m5.87.75C11 10.21 10 12 8.46 13.5l-2-3.32"/><path d="m3.82 7.53l2.65 2.65C8.59 8.91 11 7.68 12.1 6.54c2.38-2.38 1-5.64 1-5.64s-3.26-1.38-5.64 1C6.32 3 5.08 5.42 3.82 7.53m1.46-2.51l3.7 3.7"/><path d="M10.5 4a.5.5 0 1 0 0-1a.5.5 0 0 0 0 1m-6.82 8.44C3.1 13 .5 13.5.5 13.5s.5-2.6 1.06-3.18a1.501 1.501 0 0 1 2.597 1.049a1.5 1.5 0 0 1-.477 1.07Z"/></g></svg></svg>